<?xml version="1.0" encoding="utf-8"?>
<!-- Generator: Adobe Illustrator 19.0.1, SVG Export Plug-In . SVG Version: 6.00 Build 0)  -->
<svg version="1.1" id="Layer_1" xmlns="http://www.w3.org/2000/svg" xmlns:xlink="http://www.w3.org/1999/xlink" x="0px" y="0px"
	 viewBox="0 0 792 238" style="enable-background:new 0 0 792 238;" xml:space="preserve">
<style type="text/css">
	.st0{fill:#E62117;}
	.st1{fill:#0C0C0C;}
	.st2{font-family:'ArialRoundedMTBold';}
	.st3{font-size:114.3382px;}
	.st4{fill:#FFFFFF;}
	.st5{font-family:'BebasNeue';}
	.st6{font-size:25.5126px;}
	.st7{letter-spacing:10;}
</style>
<rect class="st0" width="792" height="238"/>
<g>
	<g>
		<text transform="matrix(1 0 0 1 222.7759 151.7148)" class="st1 st2 st3">Gradchat</text>
		<text transform="matrix(1 0 0 1 314.3326 189.1172)" class="st4 st5 st6 st7">The alumni network</text>
	</g>
	<g>
		<path class="st4" d="M185.2,96.2c-11.2-12.8-46.1-14-56.2-14c-10.1,0-45,1.2-56.2,14c-8,9.4-12.8,20.9-12.8,33.4
			c0,31.8,30.9,57.6,69,57.6c-8,8.9-22.2,12.9-39.9,18.3c32.5,2.4,53.9-1.8,69.5-10.9c34.2-19.8,39.5-50.6,39.5-65
			C198,117.1,193.2,105.6,185.2,96.2z M97.9,142.4c-4.5,0-8.1-3.6-8.1-8.1s3.6-8.1,8.1-8.1s8.1,3.6,8.1,8.1S102.3,142.4,97.9,142.4z
			 M129,142.4c-4.5,0-8.1-3.6-8.1-8.1s3.6-8.1,8.1-8.1c4.5,0,8.1,3.6,8.1,8.1S133.4,142.4,129,142.4z M160.1,142.4
			c-4.5,0-8.1-3.6-8.1-8.1s3.6-8.1,8.1-8.1s8.1,3.6,8.1,8.1S164.5,142.4,160.1,142.4z"/>
		<path class="st1" d="M207.9,58.6L129,31.9L50,58.6l4.3,0.1v19.4c-1.5,0.8-2.5,2.4-2.5,4.2c0,1.6,0.9,3.1,2.2,3.9L51.1,99l4.4-0.1
			l0.8-5.2l1,5.2l5.9-0.1L59,86.2c1.4-0.8,2.3-2.3,2.2-4c0-1.8-1-3.3-2.5-4V58.9l43.7,1.3C91.3,73.5,78.1,89.6,72.3,96.6
			c0.1-0.2,0.3-0.3,0.4-0.5c11.2-12.8,46.1-14,56.2-14c10.1,0,45,1.2,56.2,14c0.1,0.2,0.3,0.3,0.4,0.5c-5.7-7-18.9-23-30.1-36.5
			L207.9,58.6z"/>
	</g>
</g>
</svg>
