<?xml version="1.0" standalone="no"?>
<!DOCTYPE svg PUBLIC "-//W3C//DTD SVG 20010904//EN"
 "http://www.w3.org/TR/2001/REC-SVG-20010904/DTD/svg10.dtd">
<svg version="1.0" xmlns="http://www.w3.org/2000/svg"
 width="16.000000pt" height="16.000000pt" viewBox="0 0 16.000000 16.000000"
 preserveAspectRatio="xMidYMid meet">
<metadata>
Created by potrace 1.11, written by Peter Selinger 2001-2013
</metadata>
<g transform="translate(0.000000,16.000000) scale(0.006154,-0.006154)"
fill="#000000" stroke="none">
<path d="M0 1300 l0 -1300 1300 0 1300 0 0 1300 0 1300 -1300 0 -1300 0 0
-1300z m1589 315 c176 -39 247 -88 308 -212 35 -71 38 -84 41 -183 5 -123 -10
-197 -62 -305 -92 -195 -270 -338 -491 -396 -63 -17 -121 -22 -270 -26 -104
-3 -187 -2 -183 2 3 4 59 24 122 46 129 43 146 50 195 87 31 23 33 26 15 33
-10 4 -35 8 -54 8 -109 2 -286 81 -382 169 -126 116 -174 229 -166 394 3 78 9
104 34 158 69 147 153 199 379 236 108 18 414 11 514 -11z"/>
<path d="M966 1209 c-53 -41 -21 -119 48 -119 64 0 90 79 40 119 -15 12 -34
21 -44 21 -10 0 -29 -9 -44 -21z"/>
<path d="M1256 1209 c-50 -40 -21 -119 44 -119 65 0 94 79 44 119 -15 12 -34
21 -44 21 -10 0 -29 -9 -44 -21z"/>
<path d="M1546 1209 c-50 -40 -24 -119 40 -119 69 0 101 78 48 119 -15 12 -34
21 -44 21 -10 0 -29 -9 -44 -21z"/>
</g>
</svg>
